<svg xmlns="http://www.w3.org/2000/svg" xmlns:svgjs="http://svgjs.com/svgjs" xmlns:xlink="http://www.w3.org/1999/xlink" width="288" height="288" id="whatsapp"><circle cx="144" cy="144" r="144" fill="#0a0a3e" transform="translate(11.995 11.995) scale(.9167)"></circle><svg xmlns="http://www.w3.org/2000/svg" width="288" height="288" enable-background="new 0 0 64 64" transform="matrix(.77 0 0 .77 32.137 32.654)" viewBox="0 0 64 64" id="whatsapp"><path fill="#45ff00" d="M35.1,29.8c5,0.1,10.1,0.3,15.1,0.5c-0.1,0-0.3-0.1-0.4-0.2c-0.1-0.1-0.2-0.3-0.2-0.5c0-0.2,0-0.3,0.1-0.5
	c0.1-0.2,0.2-0.3,0.3-0.4c-0.9,0.4-1.7,0.8-2.6,1.2c-1.9,0.8,2.4-1.4,2.5-1.5c-0.2,0.1-0.3,0.2-0.4,0.5c-0.1,0.2-0.1,0.4-0.1,0.7
	c0,0.3,0.1,0.4,0.3,0.6c0.2,0.2,0.3,0.2,0.5,0.3c0,0.1-11.3-0.1-13.2-0.1C35.5,30.3,36.1,29.9,35.1,29.8 M48.2,43.7
	c-0.1,0-0.2,0-0.3,0.1c2.2-1.4,4.9-2.8,6.6-5.2c2.8-4,0.6,0.1-0.5,1.3C53.1,40.9,49.2,44.3,48.2,43.7z M40.1,46.9 M44.9,34.4
	c1.8,0.1,3.5,0.2,5.3,0.3c-1-0.1-1.7-0.4-2.4-1.3c0,0-0.1-0.1-0.1-0.1c-0.8,0.3-1.6,0.6-2.4,1L44.9,34.4z M26.4,40.2
	c-2.1-0.3-4.2-0.8-6-1.4c-0.2-0.1-0.4-0.2-0.6-0.3c-0.8-0.3-1.8-0.7-2.6-1.1c-0.2-0.1,0.4,0.4,0.6,0.6c0.4,0.4,0.6,0.9,0.8,1.4
	c0.2,0.5,0.3,1,0.4,1.6c0.1,0.4,0.1,0.7,0.1,1c0.3,0.1,1.1,0.4,0.4,0.2L19.2,42c0,0.2,0,0.4,0,0.7C21.6,41.8,24,41,26.4,40.2z
	 M49,31.9c-0.6-0.1-0.5-0.1,0.4-0.2C49.2,31.8,49.1,31.9,49,31.9z M14.9,27.8c0.1,0.1,0.1,0.2,0.1,0.4c0.9-0.4,1.8-0.8,2.8-1.2
	c1.8-0.9,3.9-1.6,5.7-2.3C21.1,25.3,17.7,26.6,14.9,27.8z M14.9,29.8c0-0.1,0-0.3,0-0.4c-0.9,0-1.6,0-1.8,0c0,0,0,0-0.1,0
	c0,0,0,0,0-0.1c0,0,0-0.1,0-0.1c0,0,0-0.1,0.1-0.1c0.6-0.3,1.1-0.6,1.7-0.9c0-0.1-0.1-0.2-0.1-0.4c-0.6,0.3-1.1,0.6-1.6,0.8
	c-0.1,0.1-0.2,0.1-0.2,0.3c0,0.1-0.1,0.2,0,0.4c0,0.1,0.1,0.2,0.2,0.3c0.1,0.1,0.2,0.1,0.3,0.1C13.8,29.9,14.3,29.8,14.9,29.8z
	 M31.9,24.9c-0.8,0-1.4-0.1-2.2-0.3c-4.3-0.7-12.3-0.3-16.7-0.1c0.9,0,1.6,0.2,2.3,1c0.7,0.8,1.1,1.6,1.3,2.7
	c0.1,0.7,0.1,1.2,0.1,1.8c0.2-0.1,0.3-0.2,0.5-0.2c-0.7,0-1.3,0-2,0.1c0-0.1,0-0.2,0-0.4c0.7,0,1.6,0,2.6,0c1.5-0.6,3-1.2,4.4-1.7
	c0.7-0.3,1.5-0.5,2.2-0.7c-0.8,0-1.4-0.1-1.8-0.2c-0.4-0.1,0.1-0.6,0-0.6c0,0.1,1.9,0.1,3.8,0.1C28.3,25.9,30.1,25.4,31.9,24.9z
	 M37.5,23.3c-1.7,0-3,0-3,0.1c0.1,0.1,0.8,0.2,1.8,0.3L37.5,23.3z M37.3,28.5c-4.5,0.6-5.2,1-9.6,2.9c-4.8,1.9-9.5,2.6-14.2,4.6
	c-0.6,0.3-1,0.6-1.6,1.1c-0.4,0.5-0.7,0.9-1.1,1.5c-0.4,0.8-0.6,1.5-0.8,2.5c-0.1,0.9-0.1,1.7,0,2.6c0.1,0.7,0.3,1.2,0.5,1.8
	c0.3,0.7,0.6,1.2,1,1.7c0.5,0.6,0.9,1,1.6,1.4c0.2,0.1,0.3,0.2,0.5,0.3c1.3,0.6,2.6,1,3.9,1.5c0.5,0.1,1,0.3,1.4,0.4
	c2.9,0.8,8.1,1.3,11.1,0.5c0.4-0.2,0.4-0.3,0-0.6c-0.8-0.4-2-0.6-2.9-0.8c-2.5-0.5-5-0.8-7.5-1.4c-1.4-0.5,1.7-0.7-1.5-1.5
	c-0.6-0.2-1.2-0.3-1.9-0.5c-0.6-0.2-1.1-0.4-1.7-0.6c-0.5-0.3-0.9-0.5-1.4-1c-0.2-0.3-0.4-0.5-0.5-0.9c-0.1-0.3-0.2-0.6-0.3-0.9
	c-0.1-0.5-0.1-0.8,0-1.3c0.1-0.5,0.2-0.8,0.4-1.3c0.2-0.3,0.3-0.5,0.5-0.8c0.3-0.3,0.5-0.4,0.8-0.6c8.6-3.9,22.4-7.9,31.5-10.2
	c0.8-0.2,1.8-0.7,2.7-1.1l0.5,0c-0.1,0.2-0.2,0.3-0.3,0.5c-0.2,0.6-0.3,1-0.2,1.7c0.1,0.6,0.3,1.1,0.6,1.5c0.1,0.1,0.2,0.2,0.3,0.3
	c0.1-0.1,0.2-0.1,0.3-0.2c-0.2-0.1-0.4-0.2-0.5-0.4c-0.3-0.4-0.5-0.8-0.5-1.3c-0.1-0.5,0-1,0.2-1.5c0.1-0.3,0.3-0.5,0.4-0.7l-0.1,0
	c-7,4.1-17.3,6.8-24.9,8.1c-3.1,0.6-7,2.4-10,3.9c-0.2,0.1-0.4,0.2-0.6,0.4c-0.2,0.2-0.3,0.3-0.4,0.6c-0.2,0.3-0.2,0.6-0.3,1
	c0,0.4,0,0.7,0,1c0,0.3,0.1,0.5,0.2,0.7c0.1,0.3,0.2,0.5,0.4,0.7c0.4,0.4,0.7,0.6,1.2,0.9c1.1,0.5,2.3,0.9,3.5,1.2
	c4,1,7.9,1.8,11.9,2.6c0.1,0,0.2,0.1,0.4,0.1c4.5,0.8,15.3-2.1,6.8-1.1c-6,0.5-3.8,0.7-5.9-1.4c-1-0.8,5.4,0.3,7.3,0.1
	c2.2-0.3,3.9-0.7,5.9-1.9c2.6-1.6,5.2-3.2,7.7-4.8c1.2-0.9,2.5-3.3,1.5-2.5c-3.4,3-5.4,4.1-9.4,5.4c-2.6,0.7-10.6,2.1-13.1,1.3
	c-0.5-1.2-1.5-0.7,1.5-0.5c3.9,0.1,7.7-0.3,11.5-2c0.2-0.1,3.7-1.7,2.7-2.4c-0.5-0.2-2.4,0.3-2.9,0.5c-4.6,1-8.5,1.3-13.2,1
	c-1-0.1-2.2-0.2-3.4-0.3c-2.7,0.8-5.5,1.7-8.2,2.6c0,0.1,0,0.3-0.1,0.5c-0.1,0.9-0.3,1.5-0.7,2.2c-0.3,0.5-0.6,0.9-1,1.3
	c-0.4,0.4-0.8,0.7-1.3,0.9c6.6-2.7,13.1-4.8,19.8-6.6c5.7-1.5,10.5-3.6,15.9-6.5c1-0.6,1.6-1.3,2.1-2.5c0.5-1.3,0.6-2.3,0.5-3.8
	c-0.2-1.4-0.6-2.4-1.4-3.4c-0.8-0.9-1.6-1.3-2.7-1.4c-0.3,0-0.5,0-0.8,0c-0.9,0-5.5-0.2-9.4-0.4c-0.5,0.1-1,0.3-1.5,0.4
	c4.4,0.2,10.7,0.3,11.7,0.3c1,0.1,1.7,0.4,2.5,1.3c0.7,0.9,1.1,1.8,1.3,3.2c0.1,1.3,0,2.4-0.4,3.5c-0.5,1.2-1.1,1.9-2,2.4
	c-4.9,2.5-14.1,6.2-19.3,6.9c-0.1-0.1,17.1-6.7,19.1-7.7c0.8-0.4,1.3-1,1.7-2c0.4-1,0.5-1.8,0.4-2.9c-0.2-1.1-0.5-1.9-1.1-2.6
	c-0.6-0.7-1.3-1-2.1-1.1c-4.8-0.1-10.1-0.3-15-0.2c-0.6,0.2-1.2,0.3-1.9,0.5c-0.8,0.2-1.6,0.5-2.4,0.7c-0.6,0.2-1.2,0.3-1.8,0.5
	c0.8,0,1.5,0,1.7,0c11.8,0.1,2.4,0.7-4,0.6c-2.4,0.7-4.9,1.5-7.3,2.4c7.5,0.1,17.6,0.3,8.4,0.5c-3,0-5.8-0.5-8.8-0.3
	c-0.9,0.4-1.8,0.7-2.7,1.2c0,0.2-0.1,0.4-0.2,0.6c-0.4,1.1-0.9,1.7-1.7,2.3c5.4-3,13.3-5.3,19-7.1c3.2-1,6.4-2,9.5-3.3
	c1.1-0.4,2.2-0.9,3.3-1.6c0.7-0.4,1.1-0.8,1.7-1.5c0.6-0.8,0.9-1.5,1.1-2.5c0.2-0.8,0.2-1.4,0.1-2.3c-0.1-0.8-0.3-1.4-0.6-2.1
	c-0.3-0.6-0.6-1-1-1.4c-0.4-0.3-0.7-0.5-1.1-0.7c-4.6-1.6-8.5-1.6-13.2-1c-1.2,0.2-2.3,0.3-3.4,0.6c-2.9,0.6-11.6,2.8-13.5,5.5
	c4.3-0.9,8.5-2.9,13.7-3.8c4-0.6,8.9-1,12.9,0.1c-4.5-0.8-8.4-0.6-12.9,0.2c-3.2,0.6-6.1,1.5-9.2,2.8c-1.4,0.6-7.3,2.3-7.8,4.3
	c0.4,0.2,12.2-4.9,6.6-2.3c-3.7,1.8,1.6,0.1,2.3,0c2.9-0.8,5.6-1.4,8.5-1.8c5-0.7,9.9-1,14.8,1c-0.1,0-0.1-0.1-0.2-0.1
	c-0.1-0.1-0.1-0.1-0.2-0.2c0,0,0-0.1-0.1-0.2c0-0.1,0-0.1,0-0.2c0-0.1,0.1-0.1,0-0.1c-0.2,0.2-0.3,0.3-0.5,0.4
	c-0.9,0.5-1.8,0.8-2.7,1.1c-3.1,1.1-6.3,2-9.4,2.9c-1.5,0.5-3,0.9-4.5,1.3c-4.6,1.4-9.2,2.8-13.8,4.1c5.8-2.7,12.1-4.6,18.2-6.5
	c3.1-0.9,6.2-1.9,9.4-2.8c0.9-0.3,1.7-0.6,2.6-1c0,0,0.4-0.3,0.3-0.2c-0.1,0.2-0.1,0.3-0.2,0.5c0,0.2,0,0.4,0,0.6
	c0,0.2,0.1,0.3,0.2,0.5c0.1,0.2,0.2,0.3,0.3,0.4c0.1,0.1,0.2,0.2,0.3,0.2c0,0-0.2-0.1-0.3-0.2c-4.3-2.1-9.8-1.7-14.2-1
	c-1.3,0.2-5.3,1-6.4,1.6c0,0,6.1-1.1,6.5-1.2c4.8-0.7,9.8-0.9,14.4,1.1C45.1,18,45,18,44.8,17.8c-0.2-0.2-0.3-0.3-0.4-0.6
	c-0.1-0.2-0.1-0.4-0.2-0.6c0-0.3,0-0.5,0-0.7c0.1-0.3,0.1-0.5,0.3-0.7c0.1-0.1-0.2,0.1-0.3,0.1c-0.8,0.4-1.7,0.7-2.6,1
	c-1.5,0.5-3,0.9-4.5,1.4c-1.6,0.5-3.2,1-4.8,1.5C26,21.2,18.1,23,12,25.9c-0.6,0.4-1,0.9-1.3,1.8c-0.3,0.9-0.3,1.6-0.2,2.5
	c0.2,0.9,0.5,1.6,1,2.2c0.6,0.6,1.1,0.8,1.8,0.7c2.3,0,4.6,0.1,6.9,0.2c7.5,0.3,15,0.7,22.5,1l0.7,0c1.3-0.5,2.6-1,3.9-1.6
	c-0.4-0.7-0.6-1.4-0.8-2.3c-0.1-1-0.1-1.9,0.2-2.8c-0.5,0-1-0.1-1.5-0.1c-3.9-0.3-1.1-0.6,0.5-0.7c0.4,0,0.8,0,1.2,0.1
	c0.5-1.1,1-1.7,1.9-2.2C46,25.9,29,29.7,37.3,28.5z" class="color45ff00 svgShape" display="none"></path><polygon fill="#fff" stroke="#45ff00" stroke-miterlimit="10" points="59.9 36.5 40.8 58.7 11.9 53.8 2.2 26.6 21.3 4.4 50.1 9.4" class="colorfff svgShape colorStroke45ff00 svgStroke"></polygon><polygon fill="#fff" stroke="#45ff00" stroke-miterlimit="10" points="57.9 36.7 40.2 57.2 13.6 52.6 4.5 27.5 22.2 7 48.9 11.6" class="colorfff svgShape colorStroke45ff00 svgStroke"></polygon><polygon fill="#fff" stroke="#45ff00" stroke-miterlimit="10" points="55.9 36.1 39.7 55 15.2 50.8 6.9 27.7 23.1 8.9 47.6 13.1" class="colorfff svgShape colorStroke45ff00 svgStroke"></polygon><polygon fill="#fff" stroke="#45ff00" stroke-miterlimit="10" points="53.7 36.1 39.1 53.1 16.9 49.3 9.4 28.5 24.1 11.4 46.2 15.2" class="colorfff svgShape colorStroke45ff00 svgStroke"></polygon><polygon fill="#fff" stroke="#45ff00" stroke-miterlimit="10" points="50.9 35.6 38.1 50.6 18.6 47.2 12 28.9 24.9 13.9 44.4 17.3" class="colorfff svgShape colorStroke45ff00 svgStroke"></polygon><polygon fill="#fff" stroke="#45ff00" stroke-miterlimit="10" points="48.5 35.1 37.1 48.3 19.9 45.3 14.1 29.2 25.5 16 42.7 18.9" class="colorfff svgShape colorStroke45ff00 svgStroke"></polygon><polygon fill="#fff" stroke="#45ff00" stroke-miterlimit="10" points="45.9 34.5 36 46 21.2 43.4 16.1 29.4 26 18 40.9 20.6" class="colorfff svgShape colorStroke45ff00 svgStroke"></polygon><linearGradient id="a" x1="38.376" x2="23.981" y1="23.981" y2="38.376" gradientUnits="userSpaceOnUse"><stop class="stopColor00fb73 svgShape" offset="0" stop-color="#00fb73"></stop><stop class="stopColor00b25b svgShape" offset="1" stop-color="#00b25b"></stop></linearGradient><circle cx="31.2" cy="31.2" r="10.2" fill="url(#a)"></circle><path fill="#fff" d="M25.7,36.9l0.8-3.2c-0.5-0.9-0.7-1.8-0.7-2.8c0-3.2,2.6-5.8,5.8-5.8c3.2,0,5.8,2.6,5.8,5.8
		c0,3.2-2.6,5.8-5.8,5.8c-1,0-1.9-0.2-2.8-0.7L25.7,36.9z M29,34.9l0.2,0.1c0.7,0.4,1.6,0.7,2.4,0.7c2.6,0,4.7-2.1,4.7-4.7
		s-2.1-4.7-4.7-4.7c-2.6,0-4.7,2.1-4.7,4.7c0,0.9,0.2,1.7,0.7,2.5l0.1,0.2l-0.5,1.8L29,34.9z" class="colorfff svgShape"></path><path fill="#fff" fill-rule="evenodd" d="M33.8,31.8c-0.2-0.1-0.6-0.3-0.8-0.2c-0.2,0.1-0.4,0.4-0.5,0.6c-0.1,0.1-0.2,0.1-0.3,0.1
		c-0.8-0.3-1.4-0.9-1.9-1.6c-0.1-0.1-0.1-0.2,0-0.3c0.1-0.2,0.3-0.3,0.3-0.6c0-0.2-0.1-0.5-0.2-0.7c-0.1-0.2-0.2-0.6-0.5-0.7
		c-0.2-0.1-0.5-0.1-0.7,0.1c-0.3,0.3-0.5,0.7-0.5,1.2c0,0.1,0,0.2,0,0.4c0.1,0.3,0.2,0.6,0.4,0.8c0.1,0.2,0.2,0.4,0.4,0.6
		c0.4,0.6,1,1.1,1.6,1.5c0.3,0.2,0.7,0.4,1,0.5c0.4,0.1,0.7,0.3,1.2,0.2c0.4-0.1,0.9-0.4,1.1-0.8c0.1-0.1,0.1-0.3,0-0.4
		C34.4,32.1,34,31.9,33.8,31.8z" class="colorfff svgShape" clip-rule="evenodd"></path></svg></svg>